Coordinates
version=1
nRows=14
nColumns=36
inDegrees=yes

Units are S.I. units (second, meters, Newtons, ...)
If the header above contains a line with 'inDegrees', this indicates whether rotational values are in degrees (yes) or radians (no).

endheader
time	pelvis_tilt	pelvis_list	pelvis_rotation	pelvis_tx	pelvis_ty	pelvis_tz	hip_flexion_r	hip_adduction_r	hip_rotation_r	knee_angle_r	knee_angle_r_beta	ankle_angle_r	subtalar_angle_r	mtp_angle_r	hip_flexion_l	hip_adduction_l	hip_rotation_l	knee_angle_l	knee_angle_l_beta	ankle_angle_l	subtalar_angle_l	mtp_angle_l	lumbar_extension	lumbar_bending	lumbar_rotation	arm_flex_r	arm_add_r	arm_rot_r	elbow_flex_r	pro_sup_r	arm_flex_l	arm_add_l	arm_rot_l	elbow_flex_l	pro_sup_l
      1.70800000	      2.48548502	      4.04583987	      1.15860330	      3.38610913	      1.01730922	      0.19389931	    -25.80853815	     -0.71038537	     -3.18771795	     69.86929588	      1.21944926	    -15.18253796	    -27.93050887	      2.68343365	     26.82337435	     10.16646677	     -4.88278676	      9.48637490	      0.16556848	    -11.35564253	     -5.42778027	    -19.78817822	    -11.97592964	     -6.86786834	      9.53350555	     -6.96876438	    -27.79616057	     -9.43029368	    143.57581387	     90.00021046	    -51.06057150	    -12.38375419	    -10.61412004	     71.78451663	     90.00021046
      1.71200000	      2.86588460	      4.04333999	      1.27592007	      3.40666264	      1.01598199	      0.19424392	    -25.12832641	     -0.62841557	     -3.19319593	     72.77022136	      1.27007996	    -14.87355449	    -29.14773006	      4.62008918	     26.06836017	     10.21227265	     -5.25301375	     10.11888016	      0.17660778	    -11.27833383	     -5.82761845	    -19.45535554	    -12.50702223	     -6.88864089	      9.11155541	     -7.76266578	    -27.28619523	     -9.04893237	    142.19389726	     90.00021046	    -50.27631061	    -12.64282549	    -10.19862260	     72.15597768	     90.00021046
      1.71600000	      3.27807578	      4.11606879	      1.41127950	      3.42705977	      1.01447546	      0.19453725	    -24.44285918	     -0.65101915	     -3.25001610	     75.71307809	      1.32144250	    -14.37973157	    -30.07602781	      6.08003763	     25.33276067	     10.32208429	     -5.64217483	     11.02252501	      0.19237935	    -11.05124145	     -6.26025204	    -19.00696278	    -13.11750915	     -6.98615551	      8.66495667	     -8.57342783	    -26.76612113	     -8.75949353	    140.78271874	     90.00021046	    -49.43381687	    -12.97347593	     -9.74172834	     72.53664642	     90.00021046
      1.72000000	      3.69577799	      4.19436345	      1.52773257	      3.44730736	      1.01286683	      0.19473209	    -23.70296231	     -0.73974875	     -3.33083718	     78.63335882	      1.37241101	    -14.04781305	    -30.89140996	      6.37761241	     24.64954428	     10.43063855	     -5.97091324	     12.18350904	      0.21264235	    -10.73208174	     -6.75562212	    -18.87108954	    -13.74664646	     -7.05525513	      8.27099674	     -9.43577752	    -26.25326660	     -8.56069736	    139.31232962	     90.00021046	    -48.44833672	    -13.34180380	     -9.19539638	     72.89522233	     90.00021046
      1.72400000	      4.06984095	      4.31161036	      1.75580867	      3.46740497	      1.01105326	      0.19507371	    -22.87952036	     -0.78220765	     -3.47686420	     81.54497446	      1.42322829	    -13.49018950	    -31.52931751	      7.75630254	     24.03758093	     10.57033258	     -6.17351196	     13.52185398	      0.23600087	    -10.38922760	     -7.05570790	    -18.13487287	    -14.36012145	     -7.18625421	      7.67036235	    -10.16955009	    -25.69221253	     -8.20361953	    137.70402985	     90.00021046	    -47.47933901	    -13.69501966	     -8.78130499	     73.28709540	     90.00021046
      1.72800000	      4.47362764	      4.42894140	      2.01358423	      3.48736348	      1.00912025	      0.19531748	    -22.05633699	     -0.85283987	     -3.68289979	     84.41906846	      1.47339070	    -12.96818776	    -32.04833316	      7.85348517	     23.42569479	     10.69834718	     -6.24024615	     15.04202705	      0.26253290	    -10.13625042	     -7.27236674	    -18.15641773	    -15.02440228	     -7.30421064	      7.01474286	    -10.84723373	    -25.15418681	     -7.84581979	    136.01293721	     90.00021046	    -46.46858495	    -14.05683413	     -8.35353827	     73.72019453	     90.00021046
      1.73200000	      4.73419334	      4.54285254	      2.14330330	      3.50722759	      1.00685047	      0.19566146	    -20.97589603	     -0.98711793	     -3.72248988	     87.36433801	      1.52479535	    -12.30864819	    -32.37296565	      8.14975888	     23.01584695	     10.75302769	     -6.35695813	     16.74076042	      0.29218139	     -9.87293762	     -7.34321763	    -18.13250732	    -15.52822227	     -7.42444710	      6.52758352	    -11.60249933	    -24.61709450	     -7.59504131	    134.27968583	     90.00021046	    -45.31902999	    -14.42683581	     -7.90498701	     73.97011176	     90.00021046
      1.73600000	      5.08214234	      4.62778954	      2.32138745	      3.52706267	      1.00449718	      0.19592508	    -19.97620641	     -1.07245796	     -3.78194748	     90.21485134	      1.57454619	    -11.64759577	    -32.56883627	      9.01942181	     22.51133792	     10.79513413	     -6.29032798	     18.49662138	      0.32282694	     -9.66194051	     -7.38196256	    -17.88798492	    -16.14406229	     -7.49889281	      5.95384481	    -12.28672972	    -24.13564632	     -7.31623272	    132.48547205	     90.00021046	    -44.16375866	    -14.76260890	     -7.49968339	     74.33230089	     90.00021046
      1.74000000	      5.44328757	      4.78965545	      2.39954138	      3.54701420	      1.00201523	      0.19609490	    -18.95264668	     -1.33496106	     -3.78368563	     93.02868738	      1.62365689	    -11.10500120	    -32.56509956	      8.77403954	     21.92965516	     10.91256062	     -6.10266661	     20.18672494	      0.35232482	     -9.51605555	     -7.44895338	    -17.83407077	    -16.75124067	     -7.64642504	      5.45307893	    -13.00603685	    -23.69928238	     -7.06010497	    130.65121045	     90.00021046	    -42.94311553	    -15.08043107	     -7.09589405	     74.61534667	     90.00021046
      1.74400000	      5.72463786	      5.08420877	      2.52098500	      3.56676926	      0.99925978	      0.19544472	    -17.81427976	     -1.88838929	     -3.89687553	     95.83778433	      1.67268488	    -10.42427084	    -32.25249030	      7.73456524	     21.39894659	     11.38202479	     -5.26036579	     21.87396649	      0.38177274	     -9.08558614	     -8.34357111	    -16.24260018	    -17.29944134	     -7.84527440	      4.88059728	    -13.73231692	    -23.39484898	     -6.87398686	    128.80638060	     90.00021046	    -41.63462073	    -15.33876890	     -6.61130994	     74.87513362	     90.00021046
      1.74800000	      6.00562113	      5.40528054	      2.56363499	      3.58639684	      0.99644597	      0.19474939	    -16.60409528	     -2.53066283	     -3.83997732	     98.62016384	      1.72124657	     -9.78499475	    -31.66502564	      6.52905737	     20.82477071	     11.89391307	     -4.39044254	     23.51383918	      0.41039391	     -7.58821434	     -8.40881456	    -12.82907492	    -17.85709623	     -8.06278306	      4.37827779	    -14.45878697	    -23.12120891	     -6.70077944	    126.91824752	     90.00021046	    -40.19678102	    -15.55546553	     -6.12929696	     75.02310919	     90.00021046
      1.75200000	      6.19321373	      5.67660332	      2.66386422	      3.60580691	      0.99335103	      0.19382991	    -15.24467226	     -3.12482790	     -3.78761196	    101.36227745	      1.76910548	     -9.39336596	    -31.06700602	      4.26896713	     20.35215217	     12.46079690	     -3.46027146	     25.31591141	      0.44184601	     -4.58201834	     -8.16651235	     -7.56795281	    -18.35817114	     -8.21466561	      3.76413430	    -15.08296723	    -22.93315490	     -6.48543022	    124.98016819	     90.00021046	    -38.73738361	    -15.71406426	     -5.69576746	     75.14409115	     90.00021046
      1.75600000	      6.40018631	      5.79843514	      2.93590997	      3.62500248	      0.99020775	      0.19363776	    -13.86182244	     -3.38794458	     -3.82231508	    103.97663041	      1.81473455	     -8.60478776	    -30.41965077	      3.66293798	     19.91456483	     12.79268780	     -2.96116365	     27.49344074	      0.47985106	     -1.06283173	     -7.76377107	     -5.34349146	    -18.92609880	     -8.26497244	      3.00270504	    -15.59567614	    -22.58794735	     -6.20071322	    122.98213000	     90.00021046	    -37.25930721	    -15.99928216	     -5.34074876	     75.38095035	     90.00021046
      1.76000000	      6.47839203	      5.80071634	      2.98111457	      3.64438738	      0.98662479	      0.19351142	    -12.20464676	     -3.64315845	     -3.53387188	    106.66324235	      1.86162477	     -7.38032174	    -29.35755804	      4.14955511	     19.50019034	     12.98128518	     -2.83863837	     29.53404334	      0.51546630	      2.55087542	     -8.08356944	     -2.66483129	    -19.27625462	     -8.22843798	      2.51915239	    -16.17857703	    -22.36192299	     -5.96892601	    120.95719350	     90.00021046	    -35.76925705	    -16.23356010	     -4.93798667	     75.61941811	     90.00021046
